<svg width="104" height="39" fill="none" xmlns="http://www.w3.org/2000/svg"><path d="M104 3.18c0 5.9-28.06 12.4-30.18 12.4-1.2 0-2.55-.28-2.55-1.4 0-.36.43-.9 1.17-1.55L70.47 9.1a.92.92 0 01.45-1.3l.34-.13c.61-.25 1.3-.21 1.88.1l3.58 1.92c1.4-.84 2.97-1.71 4.64-2.58l-6.97-4.57A.92.92 0 0174.4.99l.57-.36a4 4 0 013.18-.5l11.6 3.1C93.36 1.78 96.63.8 98.56.8c.52 0 1.04.01 1.54.05l-3.5 1.6-.09 1.19 5.4-2.52c1.3.32 2.09.9 2.09 2.07zM89.9 13.35l4.32 4.98c.27.3.7.39 1.06.22l.57-.27a2.74 2.74 0 001.55-2.8l-.54-4.68a.45.45 0 00-.6-.38l-6.17 2.2c-.3.1-.4.49-.2.73zM18.52 4.89a5.7 5.7 0 01-1.8-.63v-.83h5.4v.83c-.24.16-.5.29-.77.39-.27.1-.54.18-.8.24L16.78 18.6l-2.23.26-3.32-10.5-3.23 10.24-2.25.26L1.56 4.89a4.7 4.7 0 01-.83-.24c-.26-.12-.5-.25-.73-.4v-.82h6.94v.83a6.6 6.6 0 01-1.78.63l2 7.65.44 2.82h.04l.75-2.93 2.85-9h1.26l3.04 8.9.73 2.81h.05l.49-2.86 1.71-7.4zM21.13 13.19c0-.88.13-1.67.39-2.36.27-.71.65-1.31 1.13-1.8.5-.5 1.1-.87 1.8-1.13.7-.26 1.5-.4 2.38-.4 1 0 1.86.15 2.57.44a4.47 4.47 0 012.8 2.97 7.69 7.69 0 01-.06 4.66 4.79 4.79 0 01-2.93 2.9c-.7.27-1.5.4-2.38.4-.97 0-1.81-.14-2.53-.41a5.04 5.04 0 01-1.77-1.17 4.8 4.8 0 01-1.05-1.8 7.45 7.45 0 01-.35-2.3zm3.32 0a14 14 0 00.11 1.8c.09.53.23.99.43 1.36.2.38.47.68.81.9.34.2.79.3 1.33.3.31 0 .6-.08.86-.22.25-.16.47-.4.66-.74.19-.34.32-.8.4-1.34.1-.57.16-1.25.16-2.06 0-.67-.05-1.27-.13-1.8-.07-.54-.2-1-.4-1.37a2.06 2.06 0 00-.78-.86 2.2 2.2 0 00-1.24-.33c-.37 0-.7.08-.96.24-.28.14-.5.39-.69.74-.19.33-.33.78-.43 1.34-.08.55-.13 1.23-.13 2.04zM39.4 10.26a3 3 0 00-.6.44c-.23.2-.44.53-.63 1v5.54a4.5 4.5 0 011.72.52v.85h-6.21v-.85c.25-.14.5-.25.72-.32l.69-.2V9.31l-1.41-.18V8.3c.22-.1.5-.2.83-.28.34-.09.7-.16 1.05-.22a15.23 15.23 0 011.88-.28h.73v2.88h.09a5.37 5.37 0 011.28-1.95c.3-.29.63-.52.99-.7.36-.17.73-.25 1.11-.23.16.2.3.49.4.87.12.36.22.7.29 1.04v.84h-2.94zM48.98 18.6h-5.91v-.84c.47-.23.94-.4 1.41-.52V4.1l-1.63-.17V3.1a10.36 10.36 0 011.82-.48c.39-.07.77-.13 1.14-.17.39-.06.73-.1 1.03-.13h.73v14.93c.47.12.94.3 1.4.52v.85zM57.48 16.46c-.07.32-.2.62-.39.91a3.15 3.15 0 01-1.54 1.3c-.33.13-.68.2-1.05.2-1.41 0-2.49-.45-3.23-1.35-.73-.9-1.1-2.3-1.1-4.16 0-.95.14-1.78.4-2.5a4.49 4.49 0 012.76-2.93 6.19 6.19 0 012.82-.33 4.11 4.11 0 01.92.17l.47.15V4.1l-1.62-.17V3.1c.2-.1.47-.17.81-.24.36-.08.73-.14 1.11-.2a37.35 37.35 0 012.06-.34h.73v14.76l1.41.17V18c-.2.1-.46.2-.77.28a16.51 16.51 0 01-2 .42l-.78.13h-.73l-.2-2.37h-.08zm-1.95.67c.5 0 .92-.15 1.26-.47.35-.32.6-.86.75-1.63V9.2a2.5 2.5 0 00-.7-.28c-.27-.07-.62-.11-1.03-.11-.83 0-1.42.38-1.78 1.15a7.95 7.95 0 00-.53 3.3c0 1.16.15 2.1.47 2.81.31.71.83 1.06 1.56 1.06zM.66 33.32c0-.88.13-1.67.39-2.36.27-.71.65-1.31 1.13-1.8.5-.5 1.1-.87 1.8-1.13.7-.26 1.5-.39 2.38-.39 1 0 1.85.14 2.57.43a4.47 4.47 0 012.8 2.97 7.69 7.69 0 01-.06 4.66 4.79 4.79 0 01-2.93 2.91c-.7.26-1.5.39-2.38.39-.97 0-1.81-.14-2.53-.41a5.04 5.04 0 01-1.77-1.17A4.8 4.8 0 011 35.62a7.45 7.45 0 01-.35-2.3zm3.32 0c0 .65.04 1.25.11 1.8.09.53.23.99.43 1.37.2.37.47.67.81.88.34.2.79.3 1.33.3.31 0 .6-.06.86-.2.25-.17.47-.41.66-.75.18-.34.32-.8.4-1.34.1-.56.16-1.25.16-2.06 0-.66-.05-1.26-.13-1.8-.07-.53-.2-.99-.4-1.37a2.06 2.06 0 00-.78-.86 2.2 2.2 0 00-1.24-.33c-.37 0-.7.08-.97.24-.27.15-.5.4-.68.74-.19.33-.33.78-.43 1.34-.08.55-.13 1.23-.13 2.04zM19.59 22.44c.58 0 1.1.05 1.56.17.47.1.83.2 1.07.3-.04.48-.14.97-.28 1.48-.14.5-.27.92-.38 1.26h-.73l-.94-2.06c-.37 0-.69.04-.95.13a1.1 1.1 0 00-.6.45 2.8 2.8 0 00-.32 1c-.07.42-.1.97-.1 1.65v1.08h2.27v1.37h-2.27v8.1c.74.1 1.42.26 2.05.52v.85h-6.55v-.85c.44-.26.91-.43 1.41-.52v-8.1h-1.62v-.85c.5-.32 1.04-.56 1.62-.72v-.75c0-.9.12-1.64.37-2.22a3.45 3.45 0 012.52-2.1c.59-.13 1.21-.2 1.87-.2zM26.62 28.42a5.6 5.6 0 011.72-.74v-1.75c.08-.09.22-.17.42-.24a17.61 17.61 0 011.93-.54h.73v2.75h2.82v1.37h-2.82v5.61c0 .9.1 1.52.32 1.87.23.34.6.52 1.11.52.26 0 .55-.02.86-.05.33-.04.63-.11.9-.21l.15.71a6 6 0 01-1.43.82 6.43 6.43 0 01-2.23.46c-.93 0-1.62-.25-2.08-.74-.46-.49-.68-1.28-.68-2.38v-6.61h-1.72v-.85zM41.21 30.4a3 3 0 00-.6.43c-.23.2-.43.53-.62 1v5.54a4.5 4.5 0 011.72.52v.85H35.5v-.85c.25-.14.5-.25.72-.32l.69-.2v-7.93l-1.41-.17v-.85c.22-.1.5-.2.83-.28.34-.09.7-.16 1.05-.22.36-.07.7-.13 1.03-.17l.85-.11H40v2.88h.09a5.37 5.37 0 011.28-1.95c.3-.29.63-.52.99-.7.35-.17.73-.24 1.11-.23.16.2.3.5.4.87.12.36.21.7.29 1.04v.84H41.2zM54.29 35.6v.82l.06.74 1.48.21v.76c-.17.09-.4.18-.7.26-.3.09-.6.18-.93.26-.31.08-.63.13-.94.18l-.83.13h-.73a3.22 3.22 0 01-.26-1c-.03-.33-.05-.74-.06-1.21h-.11a2.91 2.91 0 01-1.03 1.56 3.3 3.3 0 01-2.12.69c-.47 0-.9-.07-1.3-.22-.4-.14-.75-.34-1.05-.6a2.82 2.82 0 01-.97-2.2c0-.64.12-1.18.37-1.6.24-.42.62-.76 1.13-1.02.53-.27 1.2-.47 2.01-.6.83-.13 1.83-.23 3-.29a6.7 6.7 0 00-.15-2.73c-.21-.58-.68-.86-1.39-.86-.44 0-.85.07-1.22.21l-1 2.6h-.95a6.98 6.98 0 01-.64-1.3l-.24-.78c-.05-.26-.1-.51-.13-.76a6.45 6.45 0 012.1-.89c.86-.21 1.77-.32 2.72-.32.82 0 1.48.1 2 .28.5.17.9.42 1.2.74.3.3.5.66.61 1.08.12.42.18.87.18 1.35 0 .86-.03 1.65-.07 2.36-.03.7-.04 1.4-.04 2.15zm-4.82 1.67c.3 0 .56-.06.77-.18a1.97 1.97 0 00.88-.93l.2-.5V33.5c-.68.02-1.23.06-1.66.13-.43.08-.76.2-1 .37a1.3 1.3 0 00-.52.63c-.08.25-.13.55-.13.91 0 .55.13.98.39 1.28.26.3.61.46 1.07.46zM61.35 39l-4.29-9.73c-.41-.15-.79-.32-1.13-.52v-.85h5.63v.82l-.58.3c-.18.1-.4.17-.64.25l2 5.55.4 1.45h.04l.34-1.48 1.82-5.52a3.93 3.93 0 01-1.18-.52v-.85h4.14v.85a5.4 5.4 0 01-1.22.52l-3.75 9.47-1.58.26zM77.78 36.92c-.12.24-.3.5-.56.76-.24.24-.55.47-.92.67a5.4 5.4 0 01-1.26.45 6.6 6.6 0 01-3.9-.2 4.67 4.67 0 01-2.76-2.94 7.47 7.47 0 01-.34-2.34c0-1.85.47-3.26 1.43-4.23a5.34 5.34 0 013.98-1.45c.73 0 1.4.1 2.04.3a3.48 3.48 0 012.46 2.82c.17.75.16 1.67-.02 2.75h-6.58c.02 1.15.3 2.06.86 2.74.57.68 1.4 1.02 2.5 1.02.48 0 .96-.08 1.46-.22.52-.15.92-.33 1.2-.56l.4.43zm-4.41-8.04c-.29 0-.55.05-.77.15-.22.1-.41.29-.58.56a3.6 3.6 0 00-.39 1.08c-.1.45-.17 1.02-.21 1.72h3.45c.1-1.13.03-2-.2-2.6-.23-.61-.66-.91-1.3-.91zM85.45 38.74h-5.91v-.85c.47-.23.94-.4 1.4-.52V24.24l-1.62-.18v-.84c.19-.09.44-.18.77-.26a16.57 16.57 0 012.18-.39l1.03-.13h.73v14.93c.47.12.94.3 1.42.52v.85z" fill="#FCF5ED"/></svg>